# 3ds Max Wavefront OBJ Exporter v0.97b - (c)2007 guruware
# File Created: 06.08.2017 13:20:41

mtllib Tile.mtl

#
# object Tile
#

v  -6.8740 -7.8740 0.0000
v  -7.4296 -7.7629 0.0000
v  -7.7629 -7.4296 0.0000
v  -7.8740 -6.8740 0.0000
v  -7.8740 6.8740 0.0000
v  -7.7629 7.4296 0.0000
v  -7.4296 7.7629 0.0000
v  -6.8740 7.8740 0.0000
v  6.8740 7.8740 0.0000
v  7.4296 7.7629 0.0000
v  7.7629 7.4296 0.0000
v  7.8740 6.8740 0.0000
v  7.8740 -6.8740 0.0000
v  7.7629 -7.4296 0.0000
v  7.4296 -7.7629 0.0000
v  6.8740 -7.8740 0.0000
v  -7.8740 -6.8740 1.9685
v  -7.7629 -7.4296 1.9685
v  -7.4296 -7.7629 1.9685
v  -6.8740 -7.8740 1.9685
v  6.8740 -7.8740 1.9685
v  7.4296 -7.7629 1.9685
v  7.7629 -7.4296 1.9685
v  7.8740 -6.8740 1.9685
v  7.8740 6.8740 1.9685
v  7.7629 7.4296 1.9685
v  7.4296 7.7629 1.9685
v  6.8740 7.8740 1.9685
v  -6.8740 7.8740 1.9685
v  -7.4296 7.7629 1.9685
v  -7.7629 7.4296 1.9685
v  -7.8740 6.8740 1.9685
# 32 vertices

vn 0.0000 0.0000 -1.0000
vn 0.0000 0.0000 1.0000
vn -0.0985 -0.9951 0.0000
vn 0.0985 -0.9951 0.0000
vn 0.9951 -0.0985 0.0000
vn 0.9951 0.0985 0.0000
vn 0.0985 0.9951 0.0000
vn -0.0985 0.9951 0.0000
vn -0.9951 0.0985 0.0000
vn -0.9951 -0.0985 0.0000
vn 0.4719 -0.8817 0.0000
vn -0.4719 -0.8817 0.0000
vn 0.8817 0.4719 0.0000
vn -0.4719 0.8817 0.0000
vn 0.8817 -0.4719 0.0000
vn -0.8817 -0.4719 0.0000
vn 0.4719 0.8817 0.0000
vn -0.8817 0.4719 0.0000
# 18 vertex normals

vt 0.0322 0.4998 0.0000
vt 0.0146 0.4963 0.0000
vt 0.0040 0.4857 0.0000
vt 0.0005 0.4681 0.0000
vt 0.0005 0.0322 0.0000
vt 0.0040 0.0146 0.0000
vt 0.0146 0.0040 0.0000
vt 0.0322 0.0005 0.0000
vt 0.4681 0.0005 0.0000
vt 0.4857 0.0040 0.0000
vt 0.4963 0.0146 0.0000
vt 0.4998 0.0322 0.0000
vt 0.4998 0.4681 0.0000
vt 0.4963 0.4857 0.0000
vt 0.4857 0.4963 0.0000
vt 0.4681 0.4998 0.0000
vt 0.0005 0.5319 0.0000
vt 0.0040 0.5143 0.0000
vt 0.0146 0.5037 0.0000
vt 0.0322 0.5002 0.0000
vt 0.4681 0.5002 0.0000
vt 0.4857 0.5037 0.0000
vt 0.4963 0.5143 0.0000
vt 0.4998 0.5319 0.0000
vt 0.4998 0.9678 0.0000
vt 0.4963 0.9854 0.0000
vt 0.4857 0.9960 0.0000
vt 0.4681 0.9995 0.0000
vt 0.0322 0.9995 0.0000
vt 0.0146 0.9960 0.0000
vt 0.0040 0.9854 0.0000
vt 0.0005 0.9678 0.0000
vt 0.6258 0.5006 0.0000
vt 0.6258 0.9365 0.0000
vt 0.5634 0.9365 0.0000
vt 0.5634 0.5006 0.0000
vt 0.6258 0.0287 0.0000
vt 0.6258 0.4646 0.0000
vt 0.5634 0.4646 0.0000
vt 0.5634 0.0287 0.0000
vt 0.5626 0.5217 0.0000
vt 0.5626 0.9576 0.0000
vt 0.5002 0.9576 0.0000
vt 0.5002 0.5217 0.0000
vt 0.5626 0.0287 0.0000
vt 0.5626 0.4646 0.0000
vt 0.5002 0.4646 0.0000
vt 0.5002 0.0287 0.0000
vt 0.6258 0.9541 0.0000
vt 0.5634 0.9541 0.0000
vt 0.5634 0.4830 0.0000
vt 0.6258 0.4830 0.0000
vt 0.6258 0.4822 0.0000
vt 0.5634 0.4822 0.0000
vt 0.5626 0.9752 0.0000
vt 0.5002 0.9752 0.0000
vt 0.6258 0.0005 0.0000
vt 0.6258 0.0111 0.0000
vt 0.5634 0.0111 0.0000
vt 0.5634 0.0005 0.0000
vt 0.5002 0.4928 0.0000
vt 0.5002 0.4822 0.0000
vt 0.5626 0.4822 0.0000
vt 0.5626 0.4928 0.0000
vt 0.5626 0.4935 0.0000
vt 0.5626 0.5041 0.0000
vt 0.5002 0.5041 0.0000
vt 0.5002 0.4935 0.0000
vt 0.5626 0.0005 0.0000
vt 0.5626 0.0111 0.0000
vt 0.5002 0.0111 0.0000
vt 0.5002 0.0005 0.0000
# 72 texture coords

g Tile
usemtl 01___Default
s 1
f 1/1/1 2/2/1 3/3/1 4/4/1 5/5/1 6/6/1 7/7/1 8/8/1 9/9/1 10/10/1 11/11/1 12/12/1 13/13/1 14/14/1 15/15/1 16/16/1 
f 17/17/2 18/18/2 19/19/2 20/20/2 21/21/2 22/22/2 23/23/2 24/24/2 25/25/2 26/26/2 27/27/2 28/28/2 29/29/2 30/30/2 31/31/2 32/32/2 
s 2
f 1/33/3 16/34/4 21/35/4 20/36/3 
f 13/37/5 12/38/6 25/39/6 24/40/5 
f 9/41/7 8/42/8 29/43/8 28/44/7 
f 5/45/9 4/46/10 17/47/10 32/48/9 
f 16/34/4 15/49/11 22/50/11 21/35/4 
f 20/36/3 19/51/12 2/52/12 1/33/3 
f 12/38/6 11/53/13 26/54/13 25/39/6 
f 8/42/8 7/55/14 30/56/14 29/43/8 
f 15/57/11 14/58/15 23/59/15 22/60/11 
f 14/58/15 13/37/5 24/40/5 23/59/15 
f 19/61/12 18/62/16 3/63/16 2/64/12 
f 18/62/16 17/47/10 4/46/10 3/63/16 
f 11/65/13 10/66/17 27/67/17 26/68/13 
f 10/66/17 9/41/7 28/44/7 27/67/17 
f 7/69/14 6/70/18 31/71/18 30/72/14 
f 6/70/18 5/45/9 32/48/9 31/71/18 
# 18 polygons

