# 3ds Max Wavefront OBJ Exporter v0.97b - (c)2007 guruware
# File Created: 06.08.2017 13:21:05

mtllib Tile_half.mtl

#
# object Tile_half
#

v  -2.9370 -7.8740 0.0000
v  -3.4926 -7.7629 0.0000
v  -3.8259 -7.4296 0.0000
v  -3.9370 -6.8740 0.0000
v  -3.9370 6.8740 0.0000
v  -3.8259 7.4296 0.0000
v  -3.4926 7.7629 0.0000
v  -2.9370 7.8740 0.0000
v  2.9370 7.8740 0.0000
v  3.4926 7.7629 0.0000
v  3.8259 7.4296 0.0000
v  3.9370 6.8740 0.0000
v  3.9370 -6.8740 0.0000
v  3.8259 -7.4296 0.0000
v  3.4926 -7.7629 0.0000
v  2.9370 -7.8740 0.0000
v  -3.9370 -6.8740 1.9685
v  -3.8259 -7.4296 1.9685
v  -3.4926 -7.7629 1.9685
v  -2.9370 -7.8740 1.9685
v  2.9370 -7.8740 1.9685
v  3.4926 -7.7629 1.9685
v  3.8259 -7.4296 1.9685
v  3.9370 -6.8740 1.9685
v  3.9370 6.8740 1.9685
v  3.8259 7.4296 1.9685
v  3.4926 7.7629 1.9685
v  2.9370 7.8740 1.9685
v  -2.9370 7.8740 1.9685
v  -3.4926 7.7629 1.9685
v  -3.8259 7.4296 1.9685
v  -3.9370 6.8740 1.9685
# 32 vertices

vn 0.0000 0.0000 -1.0000
vn 0.0000 0.0000 1.0000
vn -0.0985 -0.9951 0.0000
vn 0.0985 -0.9951 0.0000
vn 0.9951 -0.0985 0.0000
vn 0.9951 0.0985 0.0000
vn 0.0985 0.9951 0.0000
vn -0.0985 0.9951 0.0000
vn -0.9951 0.0985 0.0000
vn -0.9951 -0.0985 0.0000
vn 0.4719 -0.8817 0.0000
vn -0.4719 -0.8817 0.0000
vn 0.8817 0.4719 0.0000
vn -0.4719 0.8817 0.0000
vn 0.8817 -0.4719 0.0000
vn -0.8817 -0.4719 0.0000
vn 0.4719 0.8817 0.0000
vn -0.8817 0.4719 0.0000
# 18 vertex normals

vt 0.6793 0.0005 0.0000
vt 0.7048 0.0056 0.0000
vt 0.7201 0.0209 0.0000
vt 0.7252 0.0464 0.0000
vt 0.7252 0.6780 0.0000
vt 0.7201 0.7036 0.0000
vt 0.7048 0.7189 0.0000
vt 0.6793 0.7240 0.0000
vt 0.4094 0.7240 0.0000
vt 0.3839 0.7189 0.0000
vt 0.3686 0.7036 0.0000
vt 0.3635 0.6780 0.0000
vt 0.3635 0.0464 0.0000
vt 0.3686 0.0209 0.0000
vt 0.3839 0.0056 0.0000
vt 0.4094 0.0005 0.0000
vt 0.3622 0.6780 0.0000
vt 0.3571 0.7036 0.0000
vt 0.3418 0.7189 0.0000
vt 0.3163 0.7240 0.0000
vt 0.0464 0.7240 0.0000
vt 0.0209 0.7189 0.0000
vt 0.0056 0.7036 0.0000
vt 0.0005 0.6780 0.0000
vt 0.0005 0.0464 0.0000
vt 0.0056 0.0209 0.0000
vt 0.0209 0.0056 0.0000
vt 0.0464 0.0005 0.0000
vt 0.3163 0.0005 0.0000
vt 0.3418 0.0056 0.0000
vt 0.3571 0.0209 0.0000
vt 0.3622 0.0464 0.0000
vt 0.9995 0.3631 0.0000
vt 0.9995 0.6329 0.0000
vt 0.9091 0.6329 0.0000
vt 0.9091 0.3631 0.0000
vt 0.9082 0.0413 0.0000
vt 0.9082 0.6729 0.0000
vt 0.8178 0.6729 0.0000
vt 0.8178 0.0413 0.0000
vt 0.9995 0.0413 0.0000
vt 0.9995 0.3112 0.0000
vt 0.9091 0.3112 0.0000
vt 0.9091 0.0413 0.0000
vt 0.8169 0.0413 0.0000
vt 0.8169 0.6729 0.0000
vt 0.7265 0.6729 0.0000
vt 0.7265 0.0413 0.0000
vt 0.9995 0.6585 0.0000
vt 0.9091 0.6585 0.0000
vt 0.9091 0.3376 0.0000
vt 0.9995 0.3376 0.0000
vt 0.9082 0.6985 0.0000
vt 0.8178 0.6985 0.0000
vt 0.9995 0.3367 0.0000
vt 0.9091 0.3367 0.0000
vt 0.9082 0.0005 0.0000
vt 0.9082 0.0158 0.0000
vt 0.8178 0.0158 0.0000
vt 0.8178 0.0005 0.0000
vt 0.7265 0.7138 0.0000
vt 0.7265 0.6985 0.0000
vt 0.8169 0.6985 0.0000
vt 0.8169 0.7138 0.0000
vt 0.9995 0.0005 0.0000
vt 0.9995 0.0158 0.0000
vt 0.9091 0.0158 0.0000
vt 0.9091 0.0005 0.0000
vt 0.8169 0.0005 0.0000
vt 0.8169 0.0158 0.0000
vt 0.7265 0.0158 0.0000
vt 0.7265 0.0005 0.0000
# 72 texture coords

g Tile_half
usemtl 01___Default
s 1
f 1/1/1 2/2/1 3/3/1 4/4/1 5/5/1 6/6/1 7/7/1 8/8/1 9/9/1 10/10/1 11/11/1 12/12/1 13/13/1 14/14/1 15/15/1 16/16/1 
f 17/17/2 18/18/2 19/19/2 20/20/2 21/21/2 22/22/2 23/23/2 24/24/2 25/25/2 26/26/2 27/27/2 28/28/2 29/29/2 30/30/2 31/31/2 32/32/2 
s 2
f 1/33/3 16/34/4 21/35/4 20/36/3 
f 13/37/5 12/38/6 25/39/6 24/40/5 
f 9/41/7 8/42/8 29/43/8 28/44/7 
f 5/45/9 4/46/10 17/47/10 32/48/9 
f 16/34/4 15/49/11 22/50/11 21/35/4 
f 20/36/3 19/51/12 2/52/12 1/33/3 
f 12/38/6 11/53/13 26/54/13 25/39/6 
f 8/42/8 7/55/14 30/56/14 29/43/8 
s 6
f 15/57/11 14/58/15 23/59/15 22/60/11 
s 2
f 14/58/15 13/37/5 24/40/5 23/59/15 
s 6
f 19/61/12 18/62/16 3/63/16 2/64/12 
s 2
f 18/62/16 17/47/10 4/46/10 3/63/16 
s 6
f 11/65/13 10/66/17 27/67/17 26/68/13 
s 2
f 10/66/17 9/41/7 28/44/7 27/67/17 
s 6
f 7/69/14 6/70/18 31/71/18 30/72/14 
s 2
f 6/70/18 5/45/9 32/48/9 31/71/18 
# 18 polygons

